<?xml version="1.0" standalone="no"?>
<!DOCTYPE svg PUBLIC "-//W3C//DTD SVG 20010904//EN"
 "http://www.w3.org/TR/2001/REC-SVG-20010904/DTD/svg10.dtd">
<svg version="1.0" xmlns="http://www.w3.org/2000/svg"
 width="1860.000000pt" height="1860.000000pt" viewBox="0 0 1860.000000 1860.000000"
 preserveAspectRatio="xMidYMid meet">
<metadata>
Created by potrace 1.14, written by Peter Selinger 2001-2017
</metadata>
<g transform="translate(0.000000,1860.000000) scale(0.100000,-0.100000)"
fill="#000000" stroke="none">
<path d="M626 17902 c-13 -3 -16 -11 -12 -35 3 -17 2 -35 -1 -40 -5 -8 -5
-9719 0 -10235 2 -135 -1 -216 -8 -221 -5 -4 -30 -13 -55 -20 -165 -47 -360
-203 -438 -348 -57 -108 -77 -199 -76 -363 0 -160 12 -227 64 -339 55 -118
171 -257 295 -356 28 -22 52 -42 55 -45 3 -3 39 -30 80 -59 41 -30 77 -56 80
-58 9 -8 5 -1273 -4 -1273 -25 0 -129 98 -187 176 -120 163 -207 441 -234 754
-4 41 -9 77 -11 79 -3 3 -99 5 -134 2 -13 -1 -15 -54 -16 -410 -1 -225 -4
-494 -7 -598 l-6 -190 72 2 c40 1 74 3 77 4 3 0 6 14 7 31 4 49 22 107 42 132
l19 23 104 -51 c56 -29 144 -66 193 -83 l90 -32 -2 -612 c-3 -758 -3 -2852 0
-2965 2 -80 2 -82 27 -83 33 0 17191 0 17208 0 8 1 12 23 12 76 0 53 4 75 13
75 17 0 16 2328 -2 2339 -8 5 -10 152 -9 565 l3 558 91 23 c98 25 180 63 259
119 151 108 286 292 355 484 28 76 23 84 -53 88 -54 3 -55 2 -85 -39 -73 -103
-167 -178 -277 -224 -68 -29 -189 -48 -247 -39 l-48 7 0 553 0 553 43 -42 c59
-56 144 -87 248 -90 141 -4 236 25 315 97 30 27 87 109 90 128 0 3 6 25 13 50
18 61 19 122 5 202 -45 241 -278 409 -616 444 -31 3 -65 7 -75 8 -17 3 -18 32
-21 581 -2 433 1 581 10 586 16 10 16 10031 0 10037 -7 2 -12 19 -12 38 0 28
-4 34 -22 35 -79 2 -17198 3 -17212 1z m17423 -11427 c50 -25 72 -45 50 -45
-31 0 -139 -64 -187 -111 l-52 -53 0 116 c0 102 2 117 18 122 36 10 124 -5
171 -29z"/>
</g>
</svg>
